<?xml version="1.0" encoding="UTF-8" standalone="no"?>
<!-- Created with Inkscape (http://www.inkscape.org/) -->

<svg
   xmlns:dc="http://purl.org/dc/elements/1.1/"
   xmlns:cc="http://creativecommons.org/ns#"
   xmlns:rdf="http://www.w3.org/1999/02/22-rdf-syntax-ns#"
   xmlns:svg="http://www.w3.org/2000/svg"
   xmlns="http://www.w3.org/2000/svg"
   xmlns:sodipodi="http://sodipodi.sourceforge.net/DTD/sodipodi-0.dtd"
   xmlns:inkscape="http://www.inkscape.org/namespaces/inkscape"
   width="121.11112"
   height="50"
   id="svg2"
   version="1.1"
   inkscape:version="0.48.5 r10040"
   sodipodi:docname="bmcLogo.svg">
  <defs
     id="defs4" />
  <sodipodi:namedview
     id="base"
     pagecolor="#ffffff"
     bordercolor="#666666"
     borderopacity="1.0"
     inkscape:pageopacity="0.0"
     inkscape:pageshadow="2"
     inkscape:zoom="0.9783825"
     inkscape:cx="195.02002"
     inkscape:cy="76.073925"
     inkscape:document-units="px"
     inkscape:current-layer="layer1"
     showgrid="true"
     showborder="true"
     inkscape:window-width="1366"
     inkscape:window-height="706"
     inkscape:window-x="-8"
     inkscape:window-y="-8"
     inkscape:window-maximized="1"
     fit-margin-top="5"
     fit-margin-left="5"
     fit-margin-right="5"
     fit-margin-bottom="5">
    <inkscape:grid
       type="xygrid"
       id="grid2985"
       empspacing="5"
       visible="true"
       enabled="true"
       snapvisiblegridlinesonly="true"
       originx="-375px"
       originy="-600px" />
  </sodipodi:namedview>
  <metadata
     id="metadata7">
    <rdf:RDF>
      <cc:Work
         rdf:about="">
        <dc:format>image/svg+xml</dc:format>
        <dc:type
           rdf:resource="http://purl.org/dc/dcmitype/StillImage" />
        <dc:title />
      </cc:Work>
    </rdf:RDF>
  </metadata>
  <g
     inkscape:label="Layer 1"
     inkscape:groupmode="layer"
     id="layer1"
     transform="translate(-375,-402.36218)">
    <path
       style="fill:#e6e6e6;stroke:none"
       d="m 428.90278,429.5844 -0.18056,13.15563 -17.61111,0.1777 0,4.44445 40,0 0,-4.44445 -17.95833,-0.1777 0.18056,-13.15563 z"
       id="path3788"
       inkscape:connector-curvature="0"
       sodipodi:nodetypes="ccccccccc" />
    <path
       style="fill:#000000;fill-opacity:1;stroke:none"
       d="m 380,407.36218 0,40 31.11111,0 0,-17.77778 -1.11111,-2.22222 1.11111,-2.22222 0,-13.33333 17.61111,-0.018 0.16667,17.79576 4.43056,0 0.0139,-17.77778 17.77777,0 0,35.55555 40,0 0,-4.44444 -35.55556,0 0,-31.11111 35.55556,0 0,-4.43056 z m 4.43055,4.42646 22.14584,0 0,13.29167 -22.14584,0 z m 0,17.72222 22.23611,0.0735 -0.0903,13.21118 -22.14584,0 z"
       id="path2987"
       inkscape:connector-curvature="0"
       sodipodi:nodetypes="cccccccccccccccccccccccccccccc" />
    <path
       sodipodi:nodetypes="ccccc"
       style="fill:#e6e6e6;stroke:none"
       d="m 486.66666,442.91773 0,-31.1111 4.44445,0 0,31.1111 z"
       id="path3786"
       inkscape:connector-curvature="0"
       inkscape:export-filename="C:\Users\MUHAKH\Desktop\logo.png"
       inkscape:export-xdpi="90"
       inkscape:export-ydpi="90" />
  </g>
</svg>
